A group of elite soldiers sent to infiltrate and extract the lead science team from Pine Gap, Australia's top secret underground military compound, after it comes under attack from unknown forces. The mission is compromised when they encounter a young woman with no memory of who she is or how she came to be there. As they try to escape, the group quickly discovers all is not as it seems and the facility has become a testing ground for something far more sinister."

Crawlspace 2012 DVDRip H264 AC3 HS
  
http://www.imdb.com/title/tt1890375/
 
Source -- DVDR(A friend)
 
Format : Matroska
 Format version : Version 2
 File size : 742 MiB
 Duration : 1h 26mn
 
Video
 
ID : 1
 Format : AVC
 Format/Info : Advanced Video Codec
 Format profile : High@L3.0
 Format settings, CABAC : Yes
 Format settings, ReFrames : 4 frames
 Muxing mode : Header stripping
 Codec ID : V_MPEG4/ISO/AVC
 Duration : 1h 26mn
 Bit rate : 785 Kbps
 Width : 720 pixels
 Height : 306 pixels
 Display aspect ratio : 2.35:1
 Frame rate mode : Constant
 Frame rate : 24.000 fps
 Color space : YUV
 Chroma subsampling : 4:2:0
 Bit depth : 8 bits
 Scan type : Progressive
 Bits/(Pixel*Frame) : 0.148
 Stream size : 488 MiB (66%)
 
Audio
 
ID : 2
 Format : AC-3
 Format/Info : Audio Coding 3
 Codec ID : A_AC3
 Duration : 1h 26mn
 Bit rate mode : Constant
 Bit rate : 384 Kbps
 Channel(s) : 6 channels
 Channel positions : Front: L C R, Side: L R, LFE
 Sampling rate : 44.1 KHz
 Bit depth : 16 bits
 Compression mode : Lossy
 Stream size : 239 MiB (32%)
 Default : Yes
 Forced : No

 
http://i.imgur.com/z8Wqn.png 
http://i.imgur.com/Bywmu.png 
http://i.imgur.com/Srt5n.png 
http://i.imgur.com/5LQbb.png